<?xml version="1.0" encoding="utf-8"?>
<!-- Generator: Adobe Illustrator 25.0.1, SVG Export Plug-In . SVG Version: 6.00 Build 0)  -->
<svg version="1.1" id="Layer_1" xmlns="http://www.w3.org/2000/svg" xmlns:xlink="http://www.w3.org/1999/xlink" x="0px" y="0px"
	 viewBox="0 0 48.3 34.3" style="enable-background:new 0 0 48.3 34.3;" xml:space="preserve">
<style type="text/css">
	.st0{fill:#5084BC;}
</style>
<g>
	<g>
		<path class="st0" d="M46.2,15.2H2c-1,0-1.9,0.8-1.9,1.9c0,1,0.8,1.9,1.9,1.9h44.2c1,0,1.9-0.8,1.9-1.9S47.2,15.2,46.2,15.2z"/>
	</g>
</g>
<g>
	<g>
		<path class="st0" d="M46.2,0.3H2c-1,0-1.9,0.8-1.9,1.9c0,1,0.8,1.9,1.9,1.9h44.2c1,0,1.9-0.8,1.9-1.9S47.2,0.3,46.2,0.3z"/>
	</g>
</g>
<g>
	<g>
		<path class="st0" d="M46.2,30.2H2c-1,0-1.9,0.8-1.9,1.9C0.1,33.2,0.9,34,2,34h44.2c1,0,1.9-0.8,1.9-1.9
			C48.1,31,47.2,30.2,46.2,30.2z"/>
	</g>
</g>
</svg>
