<?xml version="1.0" encoding="utf-8"?>
<!-- Generator: Adobe Illustrator 25.0.1, SVG Export Plug-In . SVG Version: 6.00 Build 0)  -->
<svg version="1.1" id="Layer_1" xmlns="http://www.w3.org/2000/svg" xmlns:xlink="http://www.w3.org/1999/xlink" x="0px" y="0px"
	 viewBox="0 0 260 260" style="enable-background:new 0 0 260 260;" xml:space="preserve">
<style type="text/css">
	.st0{fill:#1D71B7;}
	.st1{fill:#FEFEFE;}
	.st2{fill:#7396CE;}
	.st3{fill:#DDDB00;}
	.st4{fill:#F8B133;}
	.st5{fill:#7296CE;}
	.st6{fill:#1A6EBC;}
	.st7{fill:#1267B2;}
	.st8{fill:#196FBC;}
	.st9{fill:#1367B3;}
	.st10{fill:#0F66B2;}
	.st11{fill:#1368B3;}
	.st12{fill:#7296D1;}
	.st13{fill:#1E70BA;}
	.st14{fill:#186BB5;}
	.st15{fill:#0D64B1;}
	.st16{fill:#0563CD;}
	.st17{fill:#ECB52D;}
	.st18{fill:#156BC1;}
	.st19{fill:#1E6EB9;}
	.st20{fill:#1769B3;}
	.st21{fill:#1065B2;}
	.st22{fill:#E5E10B;}
	.st23{fill:#0F6AB3;}
	.st24{fill:#0668C9;}
	.st25{fill:#1569C4;}
	.st26{fill:#1C6BB4;}
	.st27{fill:#116CC2;}
	.st28{fill:#1969B4;}
	.st29{fill:#0A64CB;}
	.st30{fill:#0E63B0;}
	.st31{fill:#1268C7;}
	.st32{fill:#0B60AF;}
	.st33{fill:#0964CC;}
	.st34{fill:#E8E309;}
	.st35{fill:#1164B1;}
	.st36{fill:#095DAE;}
	.st37{fill:#809CD2;}
	.st38{fill:#F8EA00;}
	.st39{fill:#1167B2;}
	.st40{fill:#F7B727;}
	.st41{fill:#F0E704;}
	.st42{fill:#0166CD;}
	.st43{fill:#0968C8;}
	.st44{fill:#0C64B1;}
	.st45{fill:#1467B3;}
	.st46{fill:#075DAD;}
	.st47{fill:#116BC3;}
	.st48{fill:#0962D0;}
	.st49{fill:#F3B629;}
	.st50{fill:#FCED00;}
	.st51{fill:#F3E902;}
	.st52{fill:#F4E903;}
	.st53{fill:#FBBA21;}
	.st54{fill:#025CAD;}
	.st55{fill:#1F6CB5;}
	.st56{fill:#F8EB00;}
	.st57{fill:#F5EB02;}
	.st58{fill:#0361D3;}
	.st59{fill:#015FD5;}
	.st60{fill:#FEBC1D;}
	.st61{fill:#F4B629;}
	.st62{fill:#F0E500;}
	.st63{fill:#FEFE00;}
	.st64{fill:#1D70B7;}
	.st65{fill:#5B84C6;}
	.st66{fill:#196BB4;}
	.st67{fill:#7195CE;}
	.st68{fill:#1167B3;}
	.st69{fill:#1A6CB5;}
	.st70{fill:#186AB4;}
	.st71{fill:#0059AC;}
	.st72{fill:#5E87C7;}
	.st73{fill:#075FAF;}
	.st74{fill:#1165B2;}
	.st75{fill:#6990CB;}
	.st76{fill:#7C9CD1;}
	.st77{fill:#1063B1;}
	.st78{fill:#176AB4;}
	.st79{fill:#6088C7;}
	.st80{fill:#6C91CC;}
	.st81{fill:#688FCB;}
	.st82{fill:#0961B0;}
	.st83{fill:#025DAE;}
	.st84{fill:#5F88C7;}
	.st85{fill:#0A5DAE;}
	.st86{fill:#7295CE;}
	.st87{fill:#6189C8;}
	.st88{fill:#055DAD;}
	.st89{fill:#1A6FB6;}
	.st90{fill:#7497CF;}
	.st91{fill:#196FB6;}
	.st92{fill:#106BB4;}
	.st93{fill:#146CB5;}
	.st94{fill:#6493E0;}
	.st95{fill:#7F9CD2;}
	.st96{fill:#F6B329;}
	.st97{fill:#F6B328;}
	.st98{fill:#6E96D4;}
	.st99{fill:#F3B32B;}
	.st100{fill:#F3B22D;}
	.st101{fill:#628CF0;}
	.st102{fill:#186DBE;}
	.st103{fill:#0362D1;}
	.st104{fill:#0260D4;}
	.st105{fill:#0160D5;}
	.st106{fill:#FBED00;}
	.st107{fill:#678FE6;}
	.st108{fill:#0560D7;}
	.st109{fill:#FEBD1C;}
	.st110{fill:#176EB6;}
	.st111{fill:#0F6BB4;}
	.st112{fill:#4883C3;}
	.st113{fill:#7397CE;}
	.st114{fill:#7D9BD1;}
	.st115{fill:#7999D0;}
	.st116{fill:#819DD2;}
	.st117{fill:#799AD0;}
	.st118{fill:#1F72B8;}
</style>
<g>
	<path class="st0" d="M224.3,99.8c0.3,8.7-2.4,18.5-5.7,28.2c-6.7,19.3-16.4,37-27,54.3c-9.6,15.6-20.1,30.5-31.7,44.7
		c-7,8.6-14.2,17.1-22.8,24.2c-5.9,4.9-8.1,4.8-13.8-0.4c-12.8-11.9-23.5-25.6-34-39.6c-7.8-10.4-15.1-21.1-21.9-32.1
		c-9.5-15.3-18.2-31-24.6-47.9c-4.1-10.8-7.5-21.8-7.1-33.6c0.8-26.1,10.6-48.4,29.5-66.5c11.1-10.7,24.2-18.1,39-22.3
		c15.2-4.3,30.7-4.9,46.2-1.3c28.3,6.5,49.3,22.7,63.1,48.1C220.6,68.7,224.2,83,224.3,99.8z"/>
	<path class="st1" d="M78.9,53.5c2.7-6,6.2-11.6,11.3-16c0.5-1.1,1.5-1.6,2.5-2.1c6.7-4.9,14.3-7.7,22.2-9.7
		c2.2-1.3,4.8-1.3,7.2-1.5c8.5-0.6,17-0.7,25.5,1c0.9,0.2,1.8,0.4,2.6,0.9c0.5,0,1,0,1.5,0.1c2.1,0.7,4.4,0.7,6.2,2
		c5.4,2.2,10.7,4.5,15.9,7.1c1.1,0,1.8,0.9,2.7,1.3c0.8,0.3,1.4,0.8,1.9,1.3c1.6,1.2,3.1,2.4,4.7,3.6c0.1,0.9-0.5,1.5-0.8,2.2
		c-0.6,1.2-1.2,2.4-1.8,3.6c-0.4,0.7-0.9,1.3-1.2,2c-0.5,0.9-0.9,1.8-1.4,2.7c-0.3,0.5-0.5,1-0.8,1.6c-1.2,1.9-2.2,3.8-3.4,5.8
		c-1.3,2.2-1.7,2.3-3.7,0.7c-0.7-0.5-1.3-1.1-2.1-1.5c-1.1-0.6-1.9-1.7-3-2.3c-0.9-0.5-1.7-1.1-2.7-1.5c-0.9-0.4-1.8-0.6-2.6-1.1
		c-1.6-1.2-3.4-1.8-5.3-2.4c-2.7-1.5-5.8-2-8.8-2.6c-1.3-0.7-2.6-0.9-4-1.2c-0.5-0.1-1.1-0.2-1.6-0.3c-2.9-0.3-5.9-0.8-8.9-0.7
		c-1.8,0.1-3.7-0.2-5.5,0.2c-0.7,0.2-1.3,0.2-2,0.2c-0.9,0-1.7-0.1-2.6,0.2c-0.9,0.2-1.8,0.2-2.6,0.8c-0.7,0.2-1.5,0-2.3,0.3
		c-0.5,0.2-1.1,0.3-1.6,0.5c-2.1,0.6-3.9,1.7-5.7,2.9c-0.5,0.3-0.9,0.7-1.3,1.1c-1.1,1-2,2.1-3,3.3c-1.4,2.5-2.5,5-2.7,7.9
		c-0.6,2-0.3,4,0,6.1c0,0.6,0.1,1.2,0.3,1.8c0.6,2,1.3,4,3,5.4c2.3,2.7,5,4.6,8.3,6c1.7,0.9,3.5,1.5,5.4,1.9
		c0.4,0.1,0.7,0.2,1.1,0.3c2.4,1.1,5,1.9,7.6,2.3c1.4,0.3,2.7,0.8,4.1,1.2c2.5,0.6,5.1,1.1,7.6,1.8c0.9,0.2,1.7,0.5,2.6,0.8
		c1.1,0.3,2.2,0.6,3.3,0.9c4.3,1.5,8.8,2.5,13.1,4.2c3.4,1.2,6.8,2.5,10,4.3c0.9,0.5,1.9,0.8,2.3,1.8c1.5,1,3.1,2,4.6,3.1
		c1.5,0.2,2.1,1.6,3.1,2.5c2.4,2.4,4.2,5.2,6.1,7.9c0.6,0.4,0.8,1.1,1.3,1.6c0.4,1.3,1.4,2.4,1.3,3.9c0.1,1.3,0.4,2.5,1,3.7
		c1.6,4.6,1.6,9.3,1,14.1c-0.7,5.3-1.7,10.6-4,15.6c-0.1,1.2-0.8,2.1-1.6,3c-1,1.4-2,2.9-3,4.3c-1.2,2.1-2.9,3.8-5,5
		c-4.5,3.2-9.2,5.9-14.3,7.9c-1.5,0.6-3.4,0.3-4.4,1.9c-2.1,0.6-4.3,0.8-6.4,1.4c-0.9,0.4-1.9,0.3-2.8,0.4c-1.2,0.4-2.5,0-3.7,0.4
		c-0.6,0-1.1,0.2-1.7,0.3c-1.6,0.1-3.2-0.2-4.8,0.3c-2.9,0-5.7,0-8.6,0c-1.7-0.5-3.5-0.1-5.3-0.3c-0.7-0.1-1.4-0.3-2.1-0.3
		c-1.2-0.4-2.5-0.1-3.8-0.3c-2.8-0.4-5.5-0.9-8.2-1.9c-0.3,0-0.7-0.1-1-0.1c-1.8-0.1-3.4-0.6-5.1-1.1c-0.5-0.8-1.3-0.8-2.1-0.9
		c-1.1,0-2.1-0.1-3.1-0.6c-1.1-1.4-2.9-1.6-4.5-2.2c-7.8-3.1-15.2-7-22-12c-1.6-1.2-1.6-2.1-0.7-3.6c0.9-1.5,1.6-3.2,2.4-4.7
		c0-1.4,1.1-2.3,1.4-3.6c0.9-1.1,0.9-2.7,2.3-3.4c0.3-0.6,0.7-1.1,1-1.7c0.5-0.6,0.2-1.3,0.4-2c1-3,2.4-3.5,5-1.5
		c1.8,1.4,3.7,2.7,5.6,4.1c4.7,3.3,10,5.6,15.3,7.6c1.1,0.4,2.2,0.7,3.3,1.1c3.5,1.2,7,2.3,10.7,3c2.1,0.5,4.3,0.9,6.4,1.2
		c1.2,0.4,2.5,0.3,3.7,0.3c0.7,0,1.5,0,2.2,0c2.2,0,4.5,0,6.7,0c1.5-0.1,3.1,0.1,4.6-0.2c1.4-0.3,2.8-0.6,4.2-1
		c6.1-1.3,11.4-3.9,14.5-9.7c0.7-1.5,0.9-3.1,1.2-4.7c0.1-0.4,0.2-0.7,0.2-1.1c0.1-1.4,0.1-2.8,0-4.2c-0.4-2.5-1.2-4.9-2.6-7.1
		c-1-1.4-2.3-2.6-3.6-3.7c-0.6-0.4-1.2-0.8-1.8-1.2c-4.1-2.6-8.4-4.8-13.2-5.5c-0.9-0.6-1.7-1.3-2.8-1.5c-1-0.3-2-0.5-3-0.9
		c-0.6-0.2-1.3-0.4-2-0.5c-0.2,0-0.4-0.1-0.7-0.2c-0.6-0.2-1.3-0.3-2-0.5c-0.5-0.2-1.1-0.3-1.7-0.5c-0.7-0.2-1.4-0.3-2.1-0.5
		c-1.5-0.5-3-0.9-4.6-1.2c-0.9-0.1-1.7-0.2-2.5-0.6c-0.7-0.3-1.3-0.6-2-0.7c-1.1-0.4-2.3-0.6-3.4-1c-0.6-0.2-1.1-0.4-1.7-0.6
		c-0.6-0.2-1.2-0.4-1.7-0.5c-4-0.9-7.6-2.7-11.4-4c-2.3-1.2-4.7-2.2-6.9-3.5c-0.4-0.3-0.8-0.5-1.2-0.7c-2-1.5-4.2-2.6-6.1-4.2
		c-0.9-1.2-2-2.3-2.8-3.5c-0.6-0.8-1.3-1.6-2-2.3c-0.5-0.8-0.9-1.7-1.4-2.5c-1.4-2.4-2-5.2-3.1-7.7c-0.4-1-0.5-2.1-0.5-3.1
		c0-0.9,0-1.9-0.3-2.8c-0.2-1-0.2-2-0.2-3c0-5.8,0.7-11.5,2.8-17C78,54.3,78.4,53.9,78.9,53.5z"/>
	<path class="st2" d="M170.7,102.6c-4-2.1-8.1-4-12.4-5.6c-0.6-3-2.9-4.8-4.7-6.9c-0.6-0.7-0.9-1.5-0.7-2.4c0.6-2.4,0.6-4.9,1.7-7.2
		c0.2-0.4,0.4-0.7,0.7-1c0.1-0.1,0.3-0.1,0.3-0.3c0-0.1-0.3,0-0.5,0c-2.5-0.2-5,0.4-7.3-1.1c-1.9-1.9-4.3-2.7-6.9-2.7
		c-4.5,0-8.5-1.3-12-4.2c-1.8-1.5-3.1,0.2-4.4,1.2c-1.2,0-1.5,1.3-2.4,1.5c-1.1,0.2,0.3,0.7-0.1,0.9c-1.4,1.6-3.4,2.3-5.2,3.2
		c-1.6,0.8-6.9-1.7-7.5-3.3c-0.4-1.3,0.7-3.3,2.3-4.1c0.7-0.3,1.5-0.4,2.2-0.6c0.9-0.3,1.8-0.8,2.7-1c0.4-0.1,1-0.2,0.8-0.7
		c-0.5-1.7,0.5-2.9,1.4-4.1c5.3-2.8,9.9-7,16.4-7c0.9-0.2,1.9-0.1,2.9-0.3c0.9-1.4,1.5-3,3-3.9c0.6-0.4,0.5-0.9,0-1.5
		c-1.6-2.3-1.6-2.4,0.7-4.4c1.2,0.5,2.8,0,3.7,1.3c3.1,0.7,6.2,1.7,9.2,2.7c1.9,0.3,3.8,0.9,5.2,2.4c0.7,0.7,1.5,1.1,2.6,1.1
		c1,0.2,1.9,0.8,2.6,1.5c0.9,0.8,1.6,2,3,2.2c0.2,0.1,0.5,0.1,0.7,0.3c3.3,2.7,3.3,2.7,5.4-1c0.8-1.4,1.7-2.8,2.5-4.1
		c0.7-0.2,0.8-0.7,0.6-1.4c0.5-0.9,1-1.7,1.5-2.6c0.6-0.5,1.2-1,1.1-2c0.5-1.3,1.1-2.6,2-3.6c0.3,0.1,0.5,0.3,0.5,0.6
		c0.9,1,1.7,2,2.6,3c0.5,1.3-0.6,2.2-0.9,3.3c-0.4,0.7-0.9,1.3-1.3,2c-0.4,0.7-0.7,1.4-1.2,2c-1.3,0.6-1.8,1.7-1.9,3
		c0,0.2,0,0.5-0.1,0.7c-0.9,1.7-2,3.3-2.7,5.1c-0.3,0.6-0.5,1.2,0,1.7c1.2,1.2,2.5,2.4,3.2,4.1c0.3,0.7,0.7,1.4,1.2,2
		c0.4,0.7,0.8,1.4,0.9,2.2c0,1.1,0.4,1.9,1.5,2.3c3.2,5.4,4.7,11.4,5.8,17.5c0.1,0.7,0.1,1.4-0.5,1.8c-1.7-0.4-2.2-2.1-3.6-2.9
		c-0.9,0-1.8-0.1-2.7-0.2c-1.5-0.5-2.9-0.5-4.5-0.4c-2.1-0.2-0.9,0.9-0.5,1.4c2.4,3.2,2.4,3.3-1,5.6
		C174.9,99.7,172.8,101.2,170.7,102.6z"/>
	<path class="st3" d="M62.9,60.2c0.3-0.4,0.7-0.7,1-1.1c0.6-0.4,1.2-0.7,1.1-1.6c0.8-2.4,3-3.8,4.1-5.9c0.4-1.3,1.5-1.9,2.4-2.8
		c1.6-1.6,3.2-3.2,4.8-4.8c1.2-0.9,1.6-2.9,3.6-2.4c-0.1,1.2-1,2.1-1.5,3.1c-0.5,1.3-1,2.6-2.1,3.6c-1.4,2.8-2.6,5.7-3.4,8.7
		c0.8,1.2,0.2,2.4,0,3.7c-0.2,1.4-0.7,2.8-0.5,4.2c-0.2,3.1-1,6.2-0.2,9.4c0.1,0.6,0.2,1.1,0.2,1.7c0,2.6,0.9,5.1,1.4,7.6
		c-0.2,2.4-1,4.7-1.5,7c-0.2,0.5-0.4,1-0.4,1.5c0,0.6,0,1.3-0.1,1.9c0,0.4-0.1,0.8-0.2,1.2c-0.4,1.2-0.2,2.5-0.2,3.7
		c0,2.2,0,4.4,0,6.6c0,0.9,0,1.7-0.2,2.6c-0.5,0.9-0.9,1.9-0.8,2.9c0.3-0.4-0.2-1.2,0.5-1.7c1,0.3,1,1.1,1.1,1.8
		c0.3,2.1,0.9,4.1,1.4,6.2c1,5,3.2,9.4,5.5,13.8c0.3,0.6,0.6,1.1,0.5,1.8c-0.6,2-1.9,3.7-2.9,5.5c-1.1,1.2-1.2,2.9-2.6,3.8
		c-0.6,1-1.1,2.1-1.7,3.1c0.5,0.8-0.1,1.2-0.6,1.6c-1.3,0-1,1.2-1.4,1.9c-0.3,0.5-0.6,1.1-0.9,1.6c-0.4,0.1-0.7,0.4-1.1,0.5
		c-0.3-0.4-0.6-0.7-0.9-1.1c0.1-0.9-0.5-1.2-1.1-1.5c-1.7-1.8-2.9-3.9-4-6.1c0-0.9-0.6-1.4-1.2-2c-1.9-3.1-3.4-6.4-4.6-9.8
		c0.2-0.8-0.1-1.5-0.6-2c-1.8-3.6-2.2-7.6-3.5-11.3c-0.3-0.3-0.2-0.7-0.3-1.1c-0.8-1.1-0.2-2.4-0.6-3.5c-0.1-1,0-1.9-0.3-2.9
		c0-1-0.4-2-0.3-3c0-3,0-6.1,0-9.1c0-0.7,0.3-1.4,0.3-2.1c0.3-1,0.2-2.1,0.3-3.1c0-0.2,0.1-0.5,0.2-0.7c0-0.2,0.1-0.5,0.2-0.7
		c1.9,0.5,0-0.9,0.5-1c0-0.5,0-1,0.1-1.5c-0.1-0.1-0.2-0.3-0.1-0.4c0-0.1,0.1-0.2,0.1-0.2c1.4-0.1,0-1.1,0.5-1.5
		c1.2-5.1,2.6-10.1,4.8-14.8c1.1-1.3,2-2.8,2.1-4.6c0.8-1.6,1.6-3.1,2.4-4.7C61.8,61.3,62.1,60.6,62.9,60.2z"/>
	<path class="st4" d="M179.9,69.4c-1.2-1.5-2.3-2.9-3.5-4.4c-0.3-0.6,0.2-1.2,0-1.8c0.8-1.9,1.7-3.6,2.9-5.2
		c0.8-0.3,0.2-0.8,0.2-1.2c0.3-1,0.6-1.9,1.7-2.3c0.4-0.7,0.8-1.4,1.2-2.1c0.6-0.5,1.2-1,1.1-2c0.5-1.1,1-2.1,1.4-3.2
		c0.2-0.3,0.4-0.6,0.6-0.8c1.9,0.3,2.7,1.8,3.5,3.2c0.8,1.1,1.7,2.2,2.5,3.4c-0.1,0.8,0.5,1.2,1.1,1.5c2.6,2.7,4.2,6.1,6.1,9.3
		c-0.2,1,0.6,1.4,1.1,2c0.3,0.5,0.7,1.1,1,1.6c0.7,0.5,1.2,1.1,1,2.1c1.4,3.6,2.7,7.2,4.1,10.9c0.7,0.9,1,1.9,0.9,3.1
		c0,0.7,0.1,1.3,0.1,2c0,0.7-0.6,1.6,0.6,1.9c0.2,0.2,0.3,0.4,0.4,0.6c0.5,2.2,0.6,4.5,1.1,6.7c0,0.6,0,1.1-0.1,1.7
		c-0.3,4.1-0.3,8.3,0,12.4c0.1,0.6,0.1,1.2,0.1,1.7c-0.7,1.7-0.1,3.6-1.1,5.2c-0.4,0.1-0.6-0.1-0.6-0.5c0-0.2,0.1-0.3,0.1-0.3
		c-0.6,0.8,0.6,1.3,0.5,2.1c-0.5,2.7-0.7,5.4-2.1,7.8c-1.5,3.6-2.4,7.5-4.5,10.9c-0.6,0.3-0.7,0.8-0.6,1.5c-1,2.2-1.7,4.5-3.5,6.2
		c-0.6,0.5-1.2,1.1-1.1,2c-0.7,0.8-0.6,2.2-1.8,2.6c-0.8,0.4-1.2,2-2.6,1c0-0.2-0.1-0.3-0.1-0.5c1.6-7.7,2.4-15.4,0.2-23.1
		c0-0.1,0.1-0.3,0.2-0.5c0.3-2.7-1-4.9-2-7.2c-0.5-0.4-0.7-0.9-0.6-1.5c-1.1-1.5-1-3.1-0.7-4.8c0.9-5.4,1.1-10.8,0.2-16.3
		c-0.8-6.9-2.8-13.4-6-19.6c-1-0.3-1-1.1-1.1-1.9c-0.3-0.7-0.7-1.4-1-2.1C181.1,70.5,180.5,69.9,179.9,69.4z"/>
	<path class="st2" d="M78.3,131.4c-2.6-4.3-4.7-8.9-5.7-13.9c0.2-0.2,0.5-0.4,0.7-0.3c2.1,1.5,5,1.3,6.9,2.9c2.1,1.8,4.4,2.5,7,2.6
		c1.4,0,2.7,0.3,3.9,1.2c2,2.1,0.3,4.5,0.6,6.8c-0.3,2.7-0.2,5.6-1.8,8c-0.5,0.9-0.3,2-0.2,3c0.1,0.9,0.3,1.9-0.6,2.6
		c-2.2-1.6-4.5-3.1-6.5-4.8c-1.2-1-1.8-0.9-2.4,0.5c-0.5,1.1-1.2,2.2-1.8,3.3c-0.7-1.4-1.3-2.8-2-4.2c-0.5-0.2-0.3-0.6-0.4-1
		c0.8-1.8,1.7-3.5,2.9-5.1C79.3,132.2,79,131.7,78.3,131.4z"/>
	<path class="st5" d="M78.4,54.6c-1.7,5.6-2.7,11.4-2.6,17.3c-0.3,0.4-0.6,0.9-1.2,1.1c-0.9,0.2-1.9,0.8-2.7-0.3
		c-0.4-2.2-0.1-4.4,0.1-6.6c0.4-3,0.5-6.1,1.8-8.9c1-1.2,2.5-1.6,3.6-2.6C77.7,54.2,78.1,54.1,78.4,54.6z"/>
	<path class="st6" d="M208.8,94.5c-0.4-2.4-0.8-4.8-1.2-7.2c0.1-0.3,0.3-0.5,0.6-0.6c1.1,2.4,1.2,5.1,1.4,7.6
		c0.6,7.7,0.6,15.3-1.1,22.9c-0.4,2-0.9,3.9-1.4,5.9c-0.2,0.7-0.4,1.3-1.2,1.5c0.3-2.8,1.6-5.4,1.6-8.2c-0.2-0.3-0.3-0.6,0.1-0.9
		c0.3-1.8,0.7-3.5,1-5.3c0.5-1.4-0.3-2.9-0.1-4.3c0-2.4,0-4.8,0-7.2C208.4,97.4,209.3,95.9,208.8,94.5z"/>
	<path class="st7" d="M150.2,26.2c-3.7-0.3-7.3-1.4-11.1-1.6c-8.1-0.5-16.2-0.3-24.3,1.2c-0.3,0-0.7-0.1-1-0.1c2-0.9,7-2,9.8-2
		c5.2,0,10.4-0.2,15.6,0.1c3.3,0.2,6.5,1,9.8,1.4C149.6,25.3,150.1,25.4,150.2,26.2z"/>
	<path class="st8" d="M192.2,124.7c1.6,6,2.2,11.9,0.8,18.1c-0.3,1.3-0.7,2.8-0.4,4.2c0.2,0.7-0.4,1-0.9,1.3
		c-0.1-4.1,1.2-8.1,1-12.2c-0.2-3.4,0-6.9-1-10.3C191.7,125.4,191.9,125,192.2,124.7z"/>
	<path class="st9" d="M128.8,179.5c2.9,0,5.8,0,8.8,0c1.6-0.5,3.3,0.2,4.9-0.4c0.5,0,0.9-0.1,1.4-0.1c1.1-0.3,2.3-0.1,3.4-0.2
		c0.1,0.1,0.2,0.1,0.4,0.2c-2.3,0.8-4.8,0.9-7.2,1c-5.6,0.1-11.3,0-16.9,0c-0.2-0.3-0.1-0.6,0.3-0.7
		C125.4,179.4,127.1,179.1,128.8,179.5z"/>
	<path class="st10" d="M189.1,139.4c0.1-4.7-0.1-9.4-1-14.1c0-0.3,0.1-0.7,0.2-1.5c2.2,6.4,1.1,12.4,1,18.4
		C189.2,141.2,189.2,140.3,189.1,139.4z"/>
	<path class="st11" d="M123.5,179.6c0,0.2,0,0.3,0,0.5c-3.5-0.9-7.2-0.5-10.7-1.6c-1.1-0.3-2.6,0.2-3.2-1.4c2.8,0.1,5.4,1.6,8.2,1.5
		c1.2,0.5,2.6-0.1,3.8,0.4c0.6,0,1.2,0.1,1.8,0.1c0.2,0.1,0.2,0.2,0.2,0.3C123.6,179.5,123.5,179.6,123.5,179.6z"/>
	<path class="st12" d="M73.7,57.1c-0.5,2.9-1,5.8-1.5,8.7c-0.4-0.2-0.2-0.7-0.5-1c-0.3-2.7,0.8-5.2,1.2-7.7
		C73.1,57,73.4,57,73.7,57.1z"/>
	<path class="st13" d="M51.6,112.4c0.6,1.2-0.3,2.5,0.5,3.6c-0.2,0.2-0.3,0.2-0.4,0c-1.3-2.9-0.8-6.2-1.5-9.2
		c0.1-0.2,0.3-0.2,0.5-0.3c0.2,0,0.4,0.1,0.5,0.3c0.1,0.9,0.4,1.8,0.1,2.8C51.6,110.5,51.1,111.5,51.6,112.4z"/>
	<path class="st14" d="M150.2,178.1c2.2-0.4,4.3-1.5,6.7-1.1c-2,1.4-4.5,1.1-6.7,2C149.9,178.7,149.9,178.4,150.2,178.1z"/>
	<path class="st11" d="M157.9,28.3c-2.1-0.6-4.4-0.7-6.2-2C153.9,26.5,156.3,26.2,157.9,28.3z"/>
	<path class="st15" d="M175.5,167.3c1.7-1.7,3.3-3.3,5-5C179.7,164.8,178.1,166.5,175.5,167.3z"/>
	<path class="st16" d="M50.6,106.8l-0.2,0c0,0-0.2,0-0.2,0c0-2.7,0-5.5,0-8.2c0.3-0.2,0.6-0.1,0.7,0.3
		C50.7,101.5,51.1,104.1,50.6,106.8z"/>
	<path class="st17" d="M191.9,148.8c1.1,0.2,1.7-0.8,2.6-1c-0.8,1.3-1.6,2.6-3.1,4C191.6,150.5,191.7,149.7,191.9,148.8z"/>
	<path class="st18" d="M50.5,98.6c-0.2,0-0.3,0-0.5,0c0.6-2.4,0.1-4.9,1-7.2c0.2-0.2,0.3-0.3,0.5,0c0,0.2,0,0.4,0,0.5
		c-0.5,1,0.1,2.2-0.4,3.3c0,0.6-0.1,1.2-0.1,1.9C50.6,97.5,51.1,98.2,50.5,98.6z"/>
	<path class="st19" d="M75.9,138c0.1,0.3,0.3,0.7,0.4,1c-0.8,1.1-0.7,2.9-2.6,3.2C74.4,140.8,75.2,139.4,75.9,138z"/>
	<path class="st20" d="M187.2,121.6c-0.6-1.3-1.1-2.6-1.7-3.8c-0.1-0.3-0.1-0.6,0.1-0.8C186.4,118.5,188,119.6,187.2,121.6z"/>
	<path class="st21" d="M103.5,175.9c1.8,0,3.5,0.2,5.1,1.1C106.7,177.6,105.1,176.8,103.5,175.9z"/>
	<path class="st22" d="M59.4,66.8c0.5,2.1-0.5,3.5-2.1,4.6C58,69.9,58.7,68.3,59.4,66.8z"/>
	<path class="st23" d="M183,91.4c0.9,0.1,1.8,0,2.5,0.6c-1.4,0.6-2.7,0.8-4.1-0.1c0.1-0.4,0.3-0.6,0.6-0.7
		C182.4,91.1,182.8,91.1,183,91.4z"/>
	<path class="st24" d="M189.1,49.6c-1.2-1.1-2.3-2.1-3.5-3.2C187.2,46.1,188.5,47.3,189.1,49.6z"/>
	<path class="st25" d="M76.3,48.3c0.4-1.4,1.3-2.4,2.1-3.6C78.6,46.5,78.1,47.8,76.3,48.3z"/>
	<path class="st26" d="M77.3,144.9c-0.7,1.1-1,2.5-2,3.5c-0.2,0.3-0.4,0.3-0.6,0c0.5-1,1-2.1,1.6-3.1
		C76.5,144.8,76.8,144.2,77.3,144.9z"/>
	<path class="st27" d="M207,83.3c-0.3-1-0.6-2-0.9-3.1c0.1-0.2,0.2-0.4,0.3-0.6C206.7,80.8,208.1,81.8,207,83.3z"/>
	<path class="st28" d="M183.5,158c0.3-1.1,0.8-2.1,1.6-3C185.4,156.4,185.1,157.6,183.5,158z"/>
	<path class="st29" d="M79.9,41.6c-1.6,0.3-2.2,2-3.6,2.4c0.7-1.7,1.6-2.9,3.6-2.9C80,41.3,80,41.5,79.9,41.6L79.9,41.6z"/>
	<path class="st30" d="M178.4,108.2c-1-0.8-2-1.7-3.1-2.5C177.3,105.3,177.7,106.9,178.4,108.2z"/>
	<path class="st31" d="M71.1,146.7c0.3-0.5,0.6-1,0.9-1.5c0.7,1.6,0.1,2.5-1.4,3C70.1,147.5,70.6,147.1,71.1,146.7z"/>
	<path class="st32" d="M74.7,148.3c0.2,0,0.4,0,0.6,0c-0.2,1.3-1,2.4-1.7,3.5C72.9,150.4,74.4,149.5,74.7,148.3z"/>
	<path class="st33" d="M71.5,48.8c-0.5,1.1-1.4,2-2.4,2.8C69.1,50,70.1,49.2,71.5,48.8z"/>
	<path class="st34" d="M60.8,140.1c1.1,0.1,1.4,0.6,1.2,2C61.3,141.7,60.9,141,60.8,140.1z"/>
	<path class="st35" d="M92.6,35.5c-0.8,0.7-1.7,1.4-2.5,2.1C90.1,35.8,91.3,35.6,92.6,35.5z"/>
	<path class="st36" d="M176.3,37c-1-0.3-1.8-0.9-2.6-1.6c1.3-0.8,1.9,0.3,2.6,1.1c0.2,0.1,0.2,0.2,0.2,0.3
		C176.5,36.9,176.4,37,176.3,37z"/>
	<path class="st37" d="M183,91.4c-0.3,0-0.6,0-0.9,0c-1.1,0.3-2.2,0.3-3.2,0c-0.1,0-0.3,0-0.4-0.1C180,90.6,181.5,90.6,183,91.4z"/>
	<path class="st38" d="M52.5,86.2c0.9,0.7,0.5,1.7,0.6,2.6c-0.7,0-0.4-0.9-0.9-1c-0.6-0.5-0.4-1-0.1-1.5
		C52.3,86.3,52.4,86.2,52.5,86.2z"/>
	<path class="st39" d="M78.4,54.6c-0.4,0-0.7,0-1.1-0.1c-0.1-0.9,0.8-1.1,1.3-1.6c0.1,0.2,0.2,0.5,0.2,0.7
		C78.7,53.9,78.5,54.2,78.4,54.6z"/>
	<path class="st40" d="M196.3,145.2c-0.5-1.2-0.3-1.9,1.1-2C197.3,144,196.9,144.7,196.3,145.2z"/>
	<path class="st41" d="M71.1,146.7c-0.2,0.5-0.4,1-0.5,1.5c-0.2,0.2-0.4,0.4-0.6,0.6c-0.7-1.2,0.4-1.8,0.8-2.7
		C70.9,146.3,71,146.5,71.1,146.7z"/>
	<path class="st42" d="M208.2,86.8c-0.2,0.2-0.4,0.4-0.6,0.6c-0.1,0-0.3-0.1-0.4-0.1c-0.4-0.5-0.5-1,0.1-1.5
		c0.2-0.2,0.6-0.6,0.7-0.5C208.4,85.6,208.1,86.2,208.2,86.8z"/>
	<path class="st43" d="M202,69.3c-0.3-0.7-0.7-1.4-1-2.1c0.1-0.2,0.2-0.4,0.3-0.6C201.7,67.5,202.9,68.1,202,69.3z"/>
	<path class="st44" d="M182.5,44.2c-0.2-0.2-0.3-0.4-0.5-0.6c0.4-0.7,0.7-1.3,1.1-2C183.8,42.7,183,43.4,182.5,44.2z"/>
	<path class="st45" d="M98.3,174.4c1.1,0,2.1,0,3.1,0.6C100.1,175.9,99.2,175.1,98.3,174.4z"/>
	<path class="st46" d="M176.3,37c0-0.2,0-0.3,0-0.5c0.9,0.2,1.9,0.4,2,1.6C177.4,38.2,177,37.4,176.3,37z"/>
	<path class="st47" d="M189.6,116c0.2,0.5,0.4,1,0.6,1.5c-0.1,0.2-0.2,0.4-0.3,0.6C189.4,117.5,188.8,116.9,189.6,116z"/>
	<path class="st48" d="M62.9,60.2c-0.4,0.7-0.7,1.3-1.1,2C61.3,61,61.5,60.2,62.9,60.2z"/>
	<path class="st49" d="M200,65.7c-0.8-0.4-1.9-0.7-1.1-2C199.3,64.4,199.6,65,200,65.7z"/>
	<path class="st50" d="M52,89.8c0.2,0.3,0.5,0.5,0.5,0.8c0,0.4,0.4,1-0.2,1.3c0,0-0.4-0.6-0.6-1c-0.5-0.3-0.4-0.6-0.1-1
		C51.7,89.8,51.9,89.8,52,89.8z"/>
	<path class="st51" d="M66,148.3c1.1,0,1.6,0.4,1.1,1.5C66.7,149.3,66.3,148.8,66,148.3z"/>
	<path class="st2" d="M178.8,91.4c1.1,0,2.2,0,3.2,0c-0.2,0.2-0.4,0.3-0.6,0.5C180.6,91.8,179.6,92.1,178.8,91.4z"/>
	<path class="st52" d="M65,57.6c0.5,1.2,0,1.6-1.1,1.6C64.3,58.6,64.7,58.1,65,57.6z"/>
	<path class="st53" d="M192.8,54.4c-1.2,0.1-1.6-0.4-1.1-1.5C192,53.5,192.4,53.9,192.8,54.4z"/>
	<path class="st54" d="M150.2,178.1c0,0.3,0,0.6,0,1c-0.9,0-1.7,0-2.6,0c0,0,0,0,0,0c-0.2-0.1-0.2-0.2-0.2-0.3
		c0.1-0.1,0.1-0.2,0.2-0.2C148.4,178.3,149.4,178.8,150.2,178.1z"/>
	<path class="st55" d="M185.6,117c0,0.3-0.1,0.5-0.1,0.8c-0.5-0.5-0.8-1.1-1-1.7C185.7,115.5,185.4,116.5,185.6,117z"/>
	<path class="st56" d="M55.6,128.3c0.9,0.5,1.6,1,0.6,2C56,129.7,55.8,129,55.6,128.3z"/>
	<path class="st57" d="M68,150.9c0.3-0.4,0.3-1.2,1.1-0.5c0,0.4,0,0.8-0.5,1C68.2,151.6,68.1,151.2,68,150.9z"/>
	<path class="st58" d="M51.6,89.9c0,0.3,0.1,0.7,0.1,1c-0.1,0.2-0.1,0.3-0.2,0.5l-0.2,0c0,0-0.2,0-0.2,0c0-0.6,0-1.1,0-1.7
		c0-0.2,0.1-0.5,0.4-0.2C51.6,89.5,51.6,89.7,51.6,89.9z"/>
	<path class="st59" d="M52.1,86.3c0,0.5,0.1,1,0.1,1.5c0,0.2-0.1,0.3-0.1,0.5C51.5,87.6,51.2,86.9,52.1,86.3z"/>
	<path class="st60" d="M207.3,85.8c0,0.5-0.1,1-0.1,1.5c-0.8-0.6-0.7-1.3-0.1-2C207.2,85.4,207.2,85.6,207.3,85.8z"/>
	<path class="st61" d="M200.9,137c-0.6-0.8-0.4-1.3,0.6-1.5C201.3,136,201.1,136.5,200.9,137z"/>
	<path class="st59" d="M51.6,116c0.1,0,0.3,0,0.4,0c0,0.3,0.1,0.7,0.1,1c-0.1,0.3-0.1,0.9-0.2,0.9c-0.6,0.1-0.2-0.4-0.3-0.7
		C51.5,116.9,51.6,116.4,51.6,116z"/>
	<path class="st62" d="M80.4,41.2c0-0.1,0-0.3,0-0.4c0.1,0,0.2,0.1,0.2,0.1C80.6,41,80.5,41,80.4,41.2
		C80.4,41.1,80.4,41.2,80.4,41.2z"/>
	<path class="st63" d="M79.8,41.7c0-0.2,0.1-0.3,0.1-0.5c0.2,0,0.4,0,0.6,0c0,0-0.1-0.1-0.1-0.1C80.2,41.3,80,41.5,79.8,41.7z"/>
	<path class="st0" d="M72.2,73c0.8-0.2,1.7-0.4,2.5-0.6c1.4,1.2,0.6,2.8,1,4.2c0.4,1.3-0.3,2.9,1,4c1,2.6,2,5.1,3,7.7
		c0,1,0.5,1.8,1.2,2.5c1.1,0.3,1.5,1.2,1.9,2.1c0.6,1.5,1.7,2.5,2.9,3.5c2,1.4,4,2.7,5.9,4.1c0.1,0.5,0.5,0.6,0.9,0.6
		c2.3,1.2,4.5,2.3,6.8,3.5c0.5,0.8,0.7,1.7,0.3,2.4c-1.4,2.8-0.3,5.1,1.3,7.4c0.4,0.6,0.9,1.3,1.1,2c1,2.2,3.2,1,4.7,1.7
		c0,0,0.2-0.4,0.2-0.6c1.5-1.2,3.1-1.7,5-1.3c0.7,0.1,1.4,0.3,2,0c3.6-1.3,5.9,1.5,8.8,2.5c0.4,0.1,0.5,0.7,0.5,1.1
		c-0.3,1.9-0.3,3.9-0.1,5.9c0.2,0.1,0.3,0.3,0.5,0.4c0.3,0.2,0.5,0.4,0.7,0.7c0.3,0.5,0.5,1,0.5,1.6c0.1,1.2,0.7,2.3,0.2,3.8
		c0.4-1.2-0.3-2.2,0.6-3c0.8,0.2,0.9,1,1,1.6c0.1,0.6-0.1,1.3,0.2,1.8c1.7,3,1.4,6,0.4,9.2c-1.1,3.3,0.5,6.1,2.2,8.9
		c0.8,1.4,1.7,2.8,1.2,4.5c-0.4,1.3-1.3,1.8-2.7,1.8c-2.3,0-4.5-0.6-6.8-0.9c-0.9-0.1-1.8-0.7-2.7-0.2c-3.7-0.6-7.3-1.5-10.8-3.1
		c-0.9-0.7-1.9-1.2-3.1-1c-5.5-1.8-10.7-4.3-15.4-7.6c-1.2-4.9,2.2-9.1,2.1-13.9c0.2-2,1.5-4.1-0.1-6.1c-1.9-0.9-3.9-0.9-5.9-1.1
		c-1-0.1-2-0.1-2.8-0.8c-2.8-2.6-6.6-2.9-9.7-4.8c-1.1-2.7-1.2-5.6-1.9-8.3c-0.4-0.3-0.3-0.6-0.1-0.9c0-0.9,0-1.7,0.1-2.6
		c0.4-2.4,0.3-4.8,0-7.1c-0.1-1.3-0.1-2.5,0.4-3.7c0.5,0.6,0.3,1.2,0.3,1.3c-0.1-0.4,0.3-1.3-0.2-2.2c0-0.7,0.1-1.4,0.1-2.1
		c1.2,0,0-0.8,0.3-1.1c0.5-2.4,1.1-4.8,1.6-7.1c0.1-2.6-1.1-5.1-1.2-7.7c-0.1-0.8-0.1-1.6-0.2-2.4C71.8,73.4,72,73.2,72.2,73z"/>
	<path class="st0" d="M135.3,57.6c-1.8,1-3.8,0.4-5.8,1.3c-3.7,1.7-6.9,4.5-10.8,5.8c-0.5,0.6-1.2,0.9-1.6,1.6
		c-0.6,3.2-1,3.5-4.2,4.2c-0.3,0.1,0.2,0.2,0.1-0.1c0-0.1,0-0.1,0.2-0.1c0.4,0,0.9-0.1,1.2,0.3c-1.5,0.7-3.4,0.5-4.2,2.5
		c-0.2,0.6-0.6,1-0.4,1.7c0.4,1.3,6,3.5,7.1,2.9c1.7-1,3.4-2,5.1-3c0.5-0.9,1.2-1.6,2.1-2c2.8-3.4,3-3.4,6.8-0.8
		c2.5,1.7,5,3.2,8.3,2.8c0.7-0.1,1.4-0.1,1.9,0.4c-1.2,0.6-2.4,0.2-3.7,0.3c3.8-0.2,7.6-0.3,10.7,2.4c1.6,0.9,3.3,1,5.1,1
		c0.9,0,1.9-0.3,2.6,0.5c-1.3,0.7-2.7,0.1-4,0.2c1.1,0.6,3-0.9,3.4,1.3c-1,2.3-1,4.8-1.7,7.2c-0.4,1.5,0.6,2.5,1.6,3.2
		c2,1.6,3.7,3.2,3.2,6.1c-4.4-1.4-8.8-2.8-13.3-4.2c-0.7-0.9-1.6-0.8-2.5-0.7c-1-0.5-2-1.1-3.2-0.8c-2.6-0.6-5.2-1.3-7.8-1.9
		c0.3-0.3,0.7-0.4,1-0.3c-2.1,0.1-4-1.5-6.3-1.6c-2-1.3-4.3-1.7-6.6-1.7c-0.3-0.1-0.6-0.1-0.8-0.2c-1.7-1.1-3.6-1.8-5.6-2.1
		c-3.1-1.5-6.3-2.9-8.2-6c-1.5-1.6-2-3.8-3.1-5.7c-0.5-0.4-0.5-1-0.4-1.6c0.2-2.2,0-4.4,0-6.6c0.2-3,1.2-5.8,3.1-8.2
		c1.2-0.6,1.9-1.8,2.9-2.7c0.5-0.4,1-0.8,1.2-1.4c1.8-1.6,3.8-2.7,6.1-3.2c0.6,0,1.2,0.2,1.5-0.4c0.7-0.5,1.3-0.8,2,0
		c3.2-1,6.4-1.8,9.8-0.9c0.6,1.1-0.4,1.7-0.8,2.5c-0.8,1.8-0.5,2.8,1.4,3.3c1.9,0.5,3.7,2.5,5.9,0.8c0.9-0.4,1-1.3,1.1-2.1
		c0.2-1.5,0.8-2.9,1.8-4c0.8-0.9,1.8-1,2.9-0.6c0.5,0.1,0.9,0.1,1.4,0.2c0.1,0.9-0.7,1.3-1.1,1.9c-0.6,0.9-0.5,1.7,0.5,2
		c2,0.5,1.6,1.8,0.5,2.4c-1.8,1-2.4,2.6-3,4.3c-2.1-0.5-4.3,0.1-6.3-0.2C133.4,57.6,134.5,56.9,135.3,57.6z"/>
	<path class="st2" d="M101.9,117c-1.2-1.4-2.1-3.1-3-4.8c-0.8-1.5-1-2.9-0.2-4.4c0.6-1,0.6-2.1,0.6-3.2c3.9,1.4,7.9,2.8,11.8,4.2
		c-0.1,0.2-0.2,0.2-0.3,0.2c0,0.1,0.1,0.1,0.3,0.1c0.4,0,0.7,0.2,1.1,0.3c0.6,0.2,1.3,0.5,2,0.4c1.3,0.1,2.5,0.4,3.6,1
		c0.5,0.7,1.4,0.5,2.1,0.9c0.8,0.5,1.6,0.6,2.5,0.2c1.6,0.4,3.3,0.6,4.8,1.4c0.5,0.8,1.3,0.5,2,0.6c0.6,0,1.2,0,1.6,0.5
		c0.5,0.8,1.3,0.5,1.9,0.6c0.2,0,0.3,0.1,0.5,0.1c0.6,0.5,1.3,0.7,2,0.5c1.1,0.2,2.2,0.4,3.1,1c0.9,0.6,2,0.7,2.8,1.5
		c5.3,0.2,9.5,2.9,13.6,5.6c0,0.6-0.2,1.2-0.6,1.6c-2.2,2-2.6,4.6-2.7,7.4c-0.4,2.3,0,4.6-0.5,6.8c-0.2,1.7-2,2.1-2.6,3.5
		c-1.1,2.3-0.8,5-2.4,7.1c-1.1,1.4-2.3,2.7-3,4.4c-0.4,0.8-0.5,1.7-0.6,2.6c-1.5,0.6-3.1,0.4-4.7,0.4c-2.4-0.5-4.8-0.1-7.1-0.2
		c-1.3-0.5-0.8-1.4-0.5-2.3c0.2-1.2-0.2-2.2-0.8-3.1c-2.4-3.4-4.3-7.3-2.6-11.3c1.2-2.9,0.5-5-0.6-7.5c-0.5-1.1,0.4-2.5-0.6-3.6
		c-0.8,0.1-1.1-0.3-1.1-1.1c-0.2-0.5-0.3-1-0.5-1.4c-0.9-1.5-0.6-3.2-0.8-4.8c-0.1-0.6-0.3-1.3-0.3-2c0-0.5,0-1.1-0.6-1.2
		c-0.3-0.1-0.8,0.2-1,0c-2.9-3.2-6.9-1.5-10.4-2.2c-1.5-0.3-2.6,0.8-3.9,1.3C105.1,118.5,103.4,118.6,101.9,117z"/>
	<path class="st0" d="M142.5,154.5c0-1.1,0.7-2,1.4-2.7c2-2.1,3.4-4.4,3.3-7.5c0-0.6,0.6-1.2,0.9-1.8c1-0.3,1.6-2,2.7-1.2
		c1.1,0.8,0.5,2.3,0.3,3.6c-0.1,0.6-1.5,1.4,0.2,1.8c0.6,0.7,1,1.8,2.3,1.3c1.5-0.9,1.7-2.5,2.2-3.9c0.7-2.2,1.9-4,3.8-5.3
		c2.5-1,2.6,0.7,2.6,2.4c0.3,1.8-1,3.3-0.9,5c-3.2,5.8-8.2,8.8-14.6,9.8c-0.7,0.2-1.3,0-2,0.2C143.1,156.8,142.5,155.9,142.5,154.5z
		"/>
	<path class="st64" d="M162,141.1c-0.5-0.9-0.3-2.4-2.1-2.1c-0.6-0.8-0.1-1.6-0.1-2.5c0.1-1.2,0.7-2.5,0-3.7c-0.5-1.2-1-0.7-1.6,0
		c-0.8,1.9-1.9,3.6-4,4.3c-1.5,0.5-1.5,2.1-2,3.3c-0.1,0.2-0.2,0.5-0.2,0.7c-0.3,1.4-0.1,2.8-0.2,4.2c-0.1,0.6-0.2,1.1-0.7,1.4
		c-0.4,0.1-0.5,0.9-0.9,0.5c-0.4-0.5-0.8-1.2-0.2-1.8c1.1-1.2,0.5-2.5,0.6-3.7c-1.2-0.4-1.3,1.8-2.6,0.9c0.1-1.6,2.3-1.5,2.5-3
		c1-2.3,0.5-4.7,0.5-7.1c-0.7-3.7,1.2-6.4,3.7-8.8c0.7,0.2,1.2,0.5,1.5,1.2c1.2,1.2,2.1,2.6,3.6,3.4c1.8,2.1,2.3,4.7,3,7.2
		c-0.3,1.7-0.4,3.4,0,5.1c0.1,0.3-0.1,0.5-0.4,0.6C162.4,141.4,162.2,141.4,162,141.1z"/>
	<path class="st2" d="M134.8,54c-1.7,0.7-7-0.2-8.1-1.4c-1.2-1.4-0.7-3.2,1.4-5.3c0.4-0.8,1.1-0.9,1.9-1c0.4,0,0.8-0.1,1.1-0.4
		c3.2-0.1,6.3,0.2,9.3,0.9c-1,0.1-2,0.1-2.6,1.1c-1.4,0.7-1.8,2.1-1.8,3.4C136.1,52.4,135.7,53.3,134.8,54z"/>
	<path class="st65" d="M119.7,85.9c2.6-1.2,4.8-0.4,6.9,1.4c0.8-0.1,1.1,0.2,1,0.9C124.8,87.9,122.2,87.1,119.7,85.9z"/>
	<path class="st11" d="M130.1,155c0.2,0.7-0.2,1.5,0.5,2.1c0.2,0.1,0.3,0.2,0.2,0.3c-0.1,0.1-0.1,0.2-0.2,0.2c-0.7,0-1.4,0-2.1-0.1
		c-1.2-0.5-2.5,0.1-3.7-0.4c-2.2,0-4.4-0.5-6.5-1.1c1.9-1.2,3.7,0.2,5.5,0.3c1.4,0.1,2.8,0,4.2,0.2
		C129.4,156.7,129.5,155.6,130.1,155z"/>
	<path class="st66" d="M130.6,46.7c-0.8,0.2-1.7,0.4-2.5,0.6c-3.4-1.3-6.6,0.3-9.9,0.5c0.4-1.3,1.6-1,2.5-1.1
		c0.9-0.4,1.9,0.1,2.8-0.4c0.6,0,1.2-0.1,1.8-0.1C127.1,46.2,129,45.3,130.6,46.7z"/>
	<path class="st67" d="M154.8,50.9c-2.7,0.5-4.7-1.7-7.2-1.9c-0.7-0.1-1.6,0.1-2-0.8C148.9,48.4,151.9,49.2,154.8,50.9z"/>
	<path class="st68" d="M127.6,88.2c-0.3-0.3-0.7-0.6-1-0.9c2.4-0.5,3.9,1.8,6.2,2c-0.4,0-0.8,0.1-1.2,0.1
		C130.2,89.3,128.9,88.6,127.6,88.2z"/>
	<path class="st66" d="M76.7,80.6c-1.7-1.1-1.2-2.9-1.5-4.5c-0.2-1.2,0.2-2.6-0.5-3.7c0.4-0.2,0.7-0.4,1.1-0.5c0,0.9,0,1.9,0,2.8
		c0.4,0.9,0,1.9,0.4,2.8C76.6,78.5,75.9,79.7,76.7,80.6z"/>
	<path class="st69" d="M142.5,154.5c0.7,2.4,2.8,1,4.2,1.6c-1.3,0.8-2.7,1-4.2,1C141.4,156.2,142,155.4,142.5,154.5z"/>
	<path class="st70" d="M113.2,83.6c2.3-0.4,4.2,0.3,5.6,2.1C116.9,85.3,115,84.7,113.2,83.6z"/>
	<path class="st71" d="M101.4,63.7c0.8,2.2,0.8,4.4,0,6.6C101,68.1,100.9,65.9,101.4,63.7z"/>
	<path class="st35" d="M101.8,71.9c1.6,1.6,2.1,3.8,3.1,5.7C102.9,76.3,102.3,74.1,101.8,71.9z"/>
	<path class="st72" d="M130.7,157.5c0-0.2,0-0.3,0-0.5c2.4,0.2,4.9-0.5,7.2,0.4C135.4,157.5,133,157.5,130.7,157.5z"/>
	<path class="st73" d="M159.9,128.3c-1.9-0.4-2.8-1.9-3.6-3.4C157.9,125.6,159,126.9,159.9,128.3z"/>
	<path class="st35" d="M107.6,52.9c-0.9,1-1.4,2.5-3.1,2.6c0.8-1.3,1.8-2.4,3-3.3C107.7,52.4,107.8,52.6,107.6,52.9z"/>
	<path class="st74" d="M162,141.1c0.2,0,0.4,0,0.6,0c0.1,1.8-0.4,3.5-1.2,5.1C160.5,144.4,162.4,142.9,162,141.1z"/>
	<path class="st75" d="M168.1,58.1c-1.8,0.3-2.4-0.8-3-2.2C166.4,56.3,167.1,57.4,168.1,58.1z"/>
	<path class="st0" d="M130.6,46.7c-1.7-1-3.6-0.2-5.4-0.5c1.9-0.7,3.9-0.3,5.9-0.4C131.1,46.2,131.1,46.6,130.6,46.7z"/>
	<path class="st76" d="M142.4,91.8c0.9,0.3,2.7-1.5,2.7,1.1c-1.1-0.1-2.2-0.4-3.2-0.8C142,91.7,142.2,91.7,142.4,91.8z"/>
	<path class="st77" d="M85.8,96.5c-1.5-0.7-2.8-1.6-2.9-3.5C83.8,94.2,85.4,94.8,85.8,96.5z"/>
	<path class="st71" d="M163,140.6c-0.8-1.7-0.7-3.4,0-5.1C163.3,137.2,163.3,138.9,163,140.6z"/>
	<path class="st0" d="M123.5,179.6c0-0.2,0-0.3,0-0.5c1.8,0,3.6-0.1,5.4,0.4C127,179.5,125.2,179.6,123.5,179.6z"/>
	<path class="st78" d="M104.5,151.9c1.4-0.8,2.4-0.3,3.1,1C106.4,153,105.5,152.2,104.5,151.9z"/>
	<path class="st0" d="M142.5,179.1c-1.6,0.9-3.2,0.3-4.9,0.4C139.2,179,140.8,179.1,142.5,179.1z"/>
	<path class="st79" d="M141.2,118c-1-0.4-2.3-0.3-2.8-1.5C139.5,116.7,140.7,116.7,141.2,118z"/>
	<path class="st80" d="M162.5,54.4c-1.3,0.8-2-0.1-2.6-1.1C160.9,53.5,161.7,53.8,162.5,54.4z"/>
	<path class="st81" d="M180,47.3c0.5,1.2,0.3,1.9-1.1,2C179.2,48.6,179.6,48,180,47.3z"/>
	<path class="st82" d="M142.4,91.8c-0.2,0.1-0.3,0.1-0.5,0.2c-0.8-0.2-1.6-0.5-2.5-0.7C140.6,90.4,141.5,91.1,142.4,91.8z"/>
	<path class="st83" d="M116.2,47.8c0.2,0.1,0.8,0.3,0.5,0.4c-0.6,0.2-1.4,1.1-2.1,0.1C115.2,48.1,115.7,47.9,116.2,47.8z"/>
	<path class="st0" d="M147.6,178.6c0,0.2,0,0.3,0,0.5c-1.3,0-2.5,0-3.8-0.1C145,178.6,146.3,178.6,147.6,178.6z"/>
	<path class="st0" d="M121.7,179c-1.3-0.1-2.6,0.5-3.8-0.4C119.1,178.6,120.4,178.5,121.7,179z"/>
	<path class="st84" d="M135.3,115.5c-0.9,0.7-1.6,0.9-2-0.5C134,115,134.6,115.1,135.3,115.5z"/>
	<path class="st72" d="M132.7,114.9c-0.9,0.7-1.5,0.4-1.9-0.6C131.5,114.4,132.2,114.4,132.7,114.9z"/>
	<path class="st72" d="M129.1,113.9c-0.9,0.7-1.5,0.4-2-0.6C127.9,113.4,128.6,113.4,129.1,113.9z"/>
	<path class="st0" d="M124.8,157.1c1.3,0.1,2.6-0.5,3.7,0.4C127.3,157.5,126.1,157.6,124.8,157.1z"/>
	<path class="st72" d="M119.9,111.9c-0.8-0.1-1.8,0.1-2-1.1c0.7,0.2,1.3,0.4,2,0.6c0.1,0.1,0.2,0.2,0.1,0.3
		C120,111.8,119.9,111.9,119.9,111.9z"/>
	<path class="st85" d="M81,90.8c-1-0.6-1.8-1.2-1.2-2.5C80.3,89.1,80.8,89.9,81,90.8z"/>
	<path class="st72" d="M112.2,109.8c-0.5-0.3-1.1-0.5-1.6-0.8c0.2-0.1,0.4-0.2,0.6-0.3c0.6,0,1.1,0.1,1.5,0.5
		C112.7,109.6,112.4,109.6,112.2,109.8z"/>
	<path class="st72" d="M112.2,109.8c0.2-0.2,0.4-0.4,0.6-0.5c0.5,0,1.1,0.1,1.5,0.5C113.6,110.8,112.9,109.7,112.2,109.8z"/>
	<path class="st86" d="M119.9,111.9c0-0.2,0-0.3,0-0.5c0.9,0.2,1.7,0.4,2.6,0.5C121.6,112.6,120.7,112.7,119.9,111.9z"/>
	<path class="st55" d="M92.7,101.1c-0.3,0.4-0.6,0.5-1,0.2c-0.3-0.3-0.3-0.5,0.1-0.7C92,100.8,92.3,101,92.7,101.1z"/>
	<path class="st0" d="M76.2,77.5c-0.8-0.8-0.3-1.9-0.4-2.8C76.2,75.6,76.2,76.6,76.2,77.5z"/>
	<path class="st87" d="M177.4,51.9c0.7,0.4,0.3,0.9,0.1,1.4c-0.2,0.4-0.5,0.3-0.7,0C176.9,52.8,177.2,52.3,177.4,51.9z"/>
	<path class="st88" d="M107.6,52.9c0-0.2-0.1-0.5-0.1-0.7c0.4-0.3,0.7-0.5,1.1-0.8C109.1,52.5,108,52.4,107.6,52.9z"/>
	<path class="st0" d="M123.5,46.3c-0.8,0.8-1.8,0.4-2.8,0.4C121.6,46.3,122.5,46.3,123.5,46.3z"/>
	<path class="st89" d="M148.1,77.6c-0.1,0.1-0.3,0.3-0.4,0.3c-1.7-0.9-2.9-2.5-5.1-2.4c-1.9,0.1-3.8,0-5.8-0.5c1.4,0,2.8,0,4.2,0
		C143.8,74.6,146.2,75.4,148.1,77.6z"/>
	<path class="st90" d="M116.8,65.8c0.6-0.4,1-1.1,1.9-1.2c-0.3,1.2-1.4,2.2-0.6,3.7c0.4,0.7-0.1,1.7-1.4,1
		C117,68.2,116.1,67,116.8,65.8z"/>
	<path class="st91" d="M116.8,65.8c-0.5,1.2,1.1,2.4-0.1,3.5c-0.8,0.3-1.6,0.7-2.5,1c-0.6-0.1-1.2,0.2-1.8-0.5
		c2.9,0.1,4.2-1.2,3.8-4c0-0.1,0.1-0.2,0.1-0.2C116.6,65.8,116.7,65.8,116.8,65.8z"/>
	<path class="st92" d="M135.3,57.6c-1.2,0-2.3,0-3.5,0c2.2-1,4.7,0.1,6.8-1.1c0.1,0.3,0.1,0.6,0.2,0.9
		C137.7,57.5,136.5,57.5,135.3,57.6z"/>
	<path class="st93" d="M155.2,80.6c-1-1.5-2.6-0.8-3.9-1.5c1.5,0,3,0,4.5,0C156.3,79.8,155.4,80.1,155.2,80.6z"/>
	<path class="st94" d="M181.3,54.4c-0.5,0.8-1.2,1.5-1.4,2.6c0,0.3-0.2,0.5-0.5,0.5C179.1,56,179.4,54.7,181.3,54.4z"/>
	<path class="st95" d="M124,72.4c-0.5,0.9-1.2,1.6-2.1,2C121.9,73.1,122.7,72.5,124,72.4z"/>
	<path class="st96" d="M179.9,69.4c1.2,0,1.5,0.5,1.1,2C180.3,70.9,180,70.2,179.9,69.4z"/>
	<path class="st97" d="M183.6,50.4c0.5,1.2,0.3,1.9-1.1,2C182.8,51.7,183.2,51,183.6,50.4z"/>
	<path class="st98" d="M182,73.4c0.4,0.6,0.7,1.3,1.1,1.9C181.6,75.3,181.5,74.6,182,73.4z"/>
	<path class="st99" d="M176.4,63.2c0.7,0.6,0.3,1.2,0,1.8C175.4,64.4,176,63.8,176.4,63.2z"/>
	<path class="st100" d="M179.4,57.5c0.2-0.2,0.4-0.3,0.5-0.5c0.5,0.2,0.6,0.6,0.2,1c-0.3,0.3-0.5,0.3-0.8-0.1
		C179.4,57.8,179.4,57.7,179.4,57.5z"/>
	<path class="st101" d="M72.2,73c0,0.1,0,0.3-0.1,0.4c-0.4,0.2-0.1,0.9-0.6,0.9c-0.5-3.2-0.3-6.4,0.2-9.6c0.2,0.3,0.3,0.7,0.5,1
		C72.1,68.2,72.2,70.6,72.2,73z"/>
	<path class="st102" d="M72.1,76c0.4,2.6,1.9,5,1,7.7c-0.8-2.5-1.7-5-1.5-7.7C71.8,75.8,72,75.7,72.1,76z"/>
	<path class="st0" d="M50.5,98.6c0.1-0.6-0.1-1.2,0.5-1.6c0,3.2,0,6.5,0,9.7c-0.2,0-0.3,0-0.5,0C50.5,104,50.5,101.3,50.5,98.6z"/>
	<path class="st103" d="M70.6,98.6c0.7,2.4,0.7,4.8,0,7.1C70.4,103.3,70.4,101,70.6,98.6z"/>
	<path class="st104" d="M71.5,90.8c0.8,0.5,0.6,1.3,0.5,2.1c-0.7,0-0.3-0.9-0.9-1C71.1,91.5,71,91.1,71.5,90.8z"/>
	<path class="st105" d="M71.1,94c0.8,1,0.4,2,0.1,3.1c-0.1-0.7-0.2-1.4-0.2-2.2C71.1,94.6,71.1,94.3,71.1,94z"/>
	<path class="st106" d="M70.6,108.3c0,0.3,0.1,0.6,0.1,0.9c-0.1,0.6-0.2,1.1-0.3,2.1C70,110,69.8,109.1,70.6,108.3z"/>
	<path class="st0" d="M51.1,95.2c0-1.1-0.4-2.3,0.4-3.3C51.6,93,51.6,94.1,51.1,95.2z"/>
	<path class="st107" d="M78.3,131.4c1.6-0.2,1,0.8,0.9,1.5c0,0-0.1,0.1-0.2,0c-0.1,0-0.1-0.1-0.2-0.1
		C78.6,132.4,78.4,131.9,78.3,131.4z"/>
	<path class="st0" d="M51.6,112.4c-0.8-0.8-0.3-1.9-0.4-2.8C51.6,110.4,51.5,111.4,51.6,112.4z"/>
	<path class="st108" d="M72.1,76c-0.2,0-0.3,0-0.5,0c-0.1-0.5-0.1-1.1-0.2-1.6c0.2-0.3,0.4-0.6,0.6-0.9C72.1,74.3,72.1,75.1,72.1,76
		z"/>
	<path class="st60" d="M209.2,98.8c0,2.4,0,4.8,0,7.2c-0.5,0.9,0.1,2-0.5,2.8c-0.8-4.3-0.8-8.5,0-12.8
		C209.3,96.9,208.7,97.9,209.2,98.8z"/>
	<path class="st0" d="M209.2,98.8c-0.2-0.9-0.3-1.9-0.5-2.8c0-0.5,0.1-1,0.1-1.5C209.6,95.9,209,97.4,209.2,98.8z"/>
	<path class="st0" d="M208.6,108.8c0.2-0.9,0.3-1.9,0.5-2.8c-0.1,1.5,0.5,3-0.4,4.4C208.7,109.8,208.7,109.3,208.6,108.8z"/>
	<path class="st109" d="M207.7,115.6c0,0.3-0.1,0.6-0.1,0.9c-0.7-0.6-0.4-1.4-0.1-2.1C207.6,114.8,207.7,115.2,207.7,115.6z"/>
	<path class="st110" d="M91.1,124.3c1.4,1,1.5,2.6,0.8,3.7c-0.5,0.8,1.2,2.2-0.7,2.3c-0.2-0.9-0.7-1.7,0.1-2.6
		C92.4,126.6,90.5,125.5,91.1,124.3z"/>
	<path class="st92" d="M101.9,117c1.6,0.9,3.3,1,5,1c0.1,0,0.2,0,0.2,0.1c0.1,0,0.2,0.1,0.2,0.1C106.1,119.3,102.7,118.5,101.9,117z
		"/>
	<path class="st111" d="M122.9,120.1c0.2,0.5,0.4,1,0.6,1.5c0,0.1,0,0.3,0,0.4c-0.2,1.4,0.4,2.9-0.5,4.2
		C122.1,124.2,122.2,122.2,122.9,120.1z"/>
	<path class="st92" d="M124.4,128.3c0.4,0.4,0.7,0.7,1.1,1.1c0,1.2,0,2.3,0,3.5C125.5,131.3,124.2,130,124.4,128.3z"/>
	<path class="st37" d="M123.5,121.6c1.1,1.7,0.3,3.5,0.5,5.3c-0.2-0.2-0.4-0.4-0.5-0.6C123.1,124.7,123.1,123.2,123.5,121.6
		L123.5,121.6z"/>
	<path class="st112" d="M123.4,121.6c0,1.6,0,3.1,0,4.7c-0.1,0-0.3,0-0.4-0.1C123.1,124.7,122.5,123.1,123.4,121.6z"/>
	<path class="st113" d="M106.1,63.1c-0.7-0.9-0.6-1.6,0.2-2.4c1.3-1.3,2.8-2.4,3.9-3.9c1-1.4,2.1-0.4,2.4,0.8
		c0.3,1.5,1.2,2.2,2.2,2.9c0.6,0.4,1.5,0.4,1.5,1.4c0,1.1-1,1.6-1.7,1.6c-2.2-0.2-3.9,1.6-6,1.3c-0.4-1,0.8-1.6,0.4-2.6
		C107.9,61.8,107.5,64,106.1,63.1z"/>
	<path class="st110" d="M106.1,63.1c1.6-0.1,2.2-2.2,4.3-2.1c-0.7,1.4-1.2,2.6-1.8,3.7c-0.2-0.7-0.9-1.1-2.4-1.1
		c-0.1,0-0.2-0.1-0.2-0.1C106,63.4,106,63.3,106.1,63.1z"/>
	<path class="st114" d="M134.8,54c0.5-1.3,1-2.5,1.1-4c0-1,0.4-2.3,1.9-2.3c-0.9,1.3-1.6,2.6-1.5,4.2C136.4,53.1,136,53.8,134.8,54z
		"/>
	<path class="st95" d="M151.1,132.5c0.7,2.4,1.1,4.8-0.5,7.1C150.8,137.2,150.3,134.8,151.1,132.5z"/>
	<path class="st2" d="M151.8,140.6c0.2-2.2,0.9-4,3.5-4.7c1.7-0.4,1.7-2.4,2.6-3.6c0.8-0.3,1.8-1.3,2.3,0.4c0.5,1.2-0.3,2.5,0.2,3.6
		c0.2,0.9-0.4,1.7-0.5,2.6c-1.9,1.8-3.3,3.9-4,6.5c-0.3,1.3-0.8,2.6-2.2,3.2c-1.6-0.1-2.1-1-2-2.5
		C151.8,144.4,151.7,142.5,151.8,140.6z"/>
	<path class="st115" d="M151.8,140.6c1,1.7,0.4,3.6,0.4,5.4c0,1.3,0.4,2.2,1.6,2.7c-1.7,0.4-2.6-0.2-2.6-2c0-0.5,0-1,0.1-1.4
		c0.6-1.5-0.1-3.2,0.4-4.7L151.8,140.6z"/>
	<path class="st116" d="M160.3,136.5c-0.9-1.3-0.2-2.7-0.4-4c0.1-0.2,0.3-0.2,0.4,0C161,133.8,160.5,135.1,160.3,136.5z"/>
	<path class="st117" d="M160.3,132.4c-0.1,0-0.3,0-0.4,0c-0.6-0.3-1-0.3-1.5,0.3c-0.6,0.8-0.5-0.1-0.6-0.3
		C158.7,131.1,159.5,130,160.3,132.4z"/>
	<path class="st118" d="M151.6,140.6c-0.2,1.6,0.5,3.2-0.4,4.7C151.3,143.8,150.8,142.1,151.6,140.6z"/>
</g>
</svg>
