<?xml version="1.0" encoding="utf-8"?>
<!-- Generator: Adobe Illustrator 25.0.1, SVG Export Plug-In . SVG Version: 6.00 Build 0)  -->
<svg version="1.1" id="Layer_1" xmlns="http://www.w3.org/2000/svg" xmlns:xlink="http://www.w3.org/1999/xlink" x="0px" y="0px"
	 viewBox="0 0 500 455" style="enable-background:new 0 0 500 455;" xml:space="preserve">
<style type="text/css">
	.st0{fill-rule:evenodd;clip-rule:evenodd;fill:#6B96C5;}
</style>
<g transform="matrix(0.829938,0,0,0.829938,-11.0535,-33.2377)">
	<path class="st0" d="M486,154.1L523.4,87c0,0,81,76.3,87.5,194.8c6.5,118.5-66.2,203.3-67.4,204.6c-1.3,1.3,27.6-80-10.1-144.8
		C533.5,341.7,557.6,237,486,154.1z"/>
</g>
<g transform="matrix(0.829938,0,0,0.829938,-11.0535,-33.2377)">
	<path class="st0" d="M471.3,143.8l41.6-73.9c0,0-73.9-64.8-196.3-64.8s-165,60.8-178.5,78.7c-13.6,17.8-43.8,79.8-19.6,148.4
		c24.2,68.6,117.6,87.4,120.1,88.5c2.5,1.2,132.7,39.7,132.7,39.7c0,0,71.2,21.2,67.1,75.2s-52.4,76.3-113.7,71.4
		c-61.4-4.9-122.5-13.8-196.2-74.1L88,511c0,0,87.2,77.9,234.4,77.9c147.2,0,204.6-70.4,212.3-145.3s-27.9-127.1-80.5-150.8
		c-52.6-23.7-131.8-41.9-131.8-41.9s-126.8-20.3-117.8-83.7c0,0-2.6-47.5,37.7-66.9C282.6,80.8,382.5,70.7,471.3,143.8z"/>
</g>
<g transform="matrix(0.829938,0,0,0.829938,-11.0535,-33.2377)">
	<path class="st0" d="M121.5,412.8c0,0-55.9-79.5-21.1-181.3c0,0-31-86.8,31.1-168.7c0,0-113.1,79.4-114.7,220.8
		C15.4,425,82.3,483.7,82.4,484C82.6,484.2,121.5,412.8,121.5,412.8z"/>
</g>
</svg>
